<svg width="24" height="24" viewBox="0 0 24 24" fill="none" xmlns="http://www.w3.org/2000/svg">
<path fill-rule="evenodd" clip-rule="evenodd" d="M14.03 14C14.03 14.72 13.31 15.12 12.35 15.12C11.39 15.12 10.67 14.72 10.67 14C10.67 13.2 11.79 12.8 12.35 12.72C12.91 12.8 14.03 13.2 14.03 14ZM12.35 11.12C12.91 11.04 13.87 10.72 13.87 10C13.87 9.36001 13.23 8.96001 12.35 8.96001C11.47 8.96001 10.83 9.36001 10.83 10C10.83 10.72 11.79 11.04 12.35 11.12ZM24 12C24 18.64 18.64 24 12 24C5.36 24 0 18.64 0 12C0 5.36 5.36 0 12 0C18.64 0 24 5.36 24 12ZM7.15 7.2H5.39L2.35 10.24L3.55 11.44L5.15 9.84V16.8H7.15V7.2ZM15.95 14.24C15.87 13.12 15.07 12.16 14.03 11.84C15.07 11.6 15.79 10.72 15.79 9.68C15.79 7.92 14.03 7.2 12.35 7.2C10.67 7.2 8.91 7.92 8.91 9.68C8.91 10.72 9.63 11.6 10.67 11.84C9.55 12.16 8.83 13.12 8.75 14.24C8.75 16 10.43 16.8 12.35 16.8C14.27 16.8 15.95 15.92 15.95 14.24ZM23.15 12C23.15 11.52 22.83 11.2 22.35 11.2H20.75V9.6C20.75 9.12 20.43 8.8 19.95 8.8C19.47 8.8 19.15 9.12 19.15 9.6V11.2H17.55C17.07 11.2 16.75 11.52 16.75 12C16.75 12.48 17.07 12.8 17.55 12.8H19.15V14.4C19.15 14.88 19.47 15.2 19.95 15.2C20.43 15.2 20.75 14.88 20.75 14.4V12.8H22.35C22.83 12.8 23.15 12.48 23.15 12Z" fill="white"/>
</svg>
