<svg width="120" height="28" viewBox="0 0 120 28" fill="none" xmlns="http://www.w3.org/2000/svg">
<g clip-path="url(#clip0_82460_53338)">
<path fill-rule="evenodd" clip-rule="evenodd" d="M41.7542 0.0292969H0V18.2511C0 23.6207 4.33532 27.9709 9.68203 27.9709H51.4383V9.74917C51.4383 4.38157 47.1029 0.0292969 41.7562 0.0292969M46.4633 10.4274C46.4633 7.40749 44.0248 4.95946 41.0167 4.95946H34.3608V11.4969H38.3303V23.0408H46.4633V10.4274ZM4.97493 4.96147V17.5728C4.97493 20.5927 7.41343 23.0408 10.4216 23.0408H13.1079V13.1503L23.3956 23.0408H31.6505V4.96147H23.5175V14.0994L14.1473 4.96147H4.97493Z" fill="#FF230A"/>
<path d="M60.6113 6.05127H74.073C78.5742 6.05127 79.8215 7.79097 79.8215 9.65709V9.95407C79.8215 11.9907 78.0885 12.8195 77.327 13.0302C78.4043 13.3051 80.7089 14.2401 80.7089 16.9972V17.2941C80.7089 19.7983 79.2938 21.835 74.1989 21.835H60.6113V6.05127ZM65.5343 9.38219V11.9486H73.2255C74.5987 11.9486 74.9385 11.3125 74.9385 10.6764V10.6343C74.9385 9.97614 74.6007 9.38219 73.2255 9.38219H65.5343ZM65.5343 15.2996V18.3978H73.6493C75.2983 18.3978 75.5941 17.4868 75.5941 16.8487V16.7644C75.5941 16.0862 75.2763 15.2996 73.6493 15.2996H65.5343Z" fill="white"/>
<path d="M99.2763 6.05127V9.63703H87.5695V11.9707H99.0004V15.5765H87.5695V18.165H99.4881V21.835H82.7085V6.05127H99.2763Z" fill="white"/>
<path d="M101.487 6.05127H120V9.78552H113.216V21.835H108.249V9.78552H101.487V6.05127Z" fill="white"/>
</g>
<defs>
<clipPath id="clip0_82460_53338">
<rect width="120" height="28" fill="white"/>
</clipPath>
</defs>
</svg>
