<svg width="74" height="28" viewBox="0 0 74 28" fill="none" xmlns="http://www.w3.org/2000/svg">
  <g clip-path="url(#clip0_4410_205785)">
    <g clip-path="url(#clip1_4410_205785)">
      <path d="M0.0797672 22.0799L6.38977 4.92993L7.55977 22.8699L1.74977 24.0099C0.639767 24.2099 -0.280233 23.1399 0.0797672 22.0699V22.0799Z" fill="url(#paint0_linear_4410_205785)"/>
      <path d="M7.36978 4.81003L11.5998 17.48L14.6498 26.61C14.9798 27.58 15.9698 28.17 16.9798 27.97L31.6398 25.17C32.5198 25 33.0498 24.09 32.7698 23.24L25.4798 1.44003C25.1398 0.440029 24.1198 -0.159971 23.0798 0.0400293L8.48978 2.88003C7.60978 3.05003 7.07978 3.96003 7.36978 4.81003ZM16.4498 12.36L18.5998 9.20003L22.6298 11.17C22.6298 11.17 25.3798 12.43 24.6198 14.27C23.9598 15.86 21.9098 15.47 21.1598 14.94C21.1598 14.94 21.8098 16.49 23.8998 16.92L19.1798 17.84C20.9898 16.41 20.3298 15.1 20.3298 15.1C20.0498 15.83 18.5298 16.91 16.8698 15.77C14.9498 14.45 16.4698 12.36 16.4698 12.36H16.4498Z" fill="url(#paint1_linear_4410_205785)"/>
      <path d="M40.2996 7.60015C40.4796 8.06015 40.5597 8.59015 40.5597 9.18015C40.5597 10.2201 40.1596 11.0501 39.3596 11.6801C38.5596 12.3101 37.3497 12.6201 35.7197 12.6201C34.9597 12.6201 34.2296 12.5601 33.5496 12.4301C32.8696 12.3101 32.2896 12.1301 31.7996 11.9101V9.18015C32.3296 9.43015 32.9197 9.63015 33.5597 9.78015C34.2097 9.93015 34.8097 10.0101 35.3797 10.0101C35.9497 10.0101 36.4096 9.96015 36.7096 9.86015C37.0096 9.76015 37.1596 9.53015 37.1596 9.18015C37.1596 8.93015 37.0697 8.74015 36.8997 8.60015C36.7297 8.46015 36.4596 8.33015 36.1096 8.21015C35.7496 8.09015 35.2796 7.95015 34.7096 7.77015C33.9496 7.52015 33.3396 7.25015 32.8896 6.96015C32.4396 6.67015 32.1196 6.31015 31.9296 5.88015C31.7396 5.46015 31.6396 4.94015 31.6396 4.33015C31.6396 3.21015 32.0397 2.36015 32.8297 1.78015C33.6197 1.20015 34.7996 0.910147 36.3696 0.910147C36.9896 0.910147 37.6396 0.960147 38.2996 1.07015C38.9596 1.18015 39.4996 1.29015 39.9096 1.42015V4.17015C39.3596 3.95015 38.8296 3.79015 38.3196 3.69015C37.8096 3.60015 37.3396 3.55015 36.8896 3.55015C36.3696 3.55015 35.9296 3.59015 35.5696 3.67015C35.2096 3.75015 35.0196 3.96015 35.0196 4.31015C35.0196 4.60015 35.1797 4.82015 35.4897 4.95015C35.7997 5.09015 36.3596 5.26015 37.1596 5.47015C38.0896 5.72015 38.7997 6.02015 39.2896 6.37015C39.7796 6.72015 40.1096 7.13015 40.2896 7.60015H40.2996ZM45.1096 1.08015H41.7896V12.4401H50.2197V9.90015H45.0996V1.08015H45.1096ZM61.5196 3.38015C61.9697 4.24015 62.1896 5.38015 62.1896 6.79015C62.1896 8.84015 61.6896 10.3201 60.6896 11.2401C59.6896 12.1601 58.2497 12.6201 56.3797 12.6201C54.5096 12.6201 53.0596 12.1601 52.0696 11.2401C51.0796 10.3201 50.5797 8.84015 50.5797 6.79015C50.5797 5.38015 50.7996 4.24015 51.2496 3.38015C51.6996 2.52015 52.3496 1.89015 53.2197 1.49015C54.0797 1.10015 55.1396 0.900146 56.3896 0.900146C57.6396 0.900146 58.6896 1.10015 59.5597 1.49015C60.4197 1.88015 61.0796 2.51015 61.5296 3.38015H61.5196ZM58.8097 6.79015C58.8097 5.67015 58.6196 4.88015 58.2397 4.42015C57.8597 3.96015 57.2397 3.72015 56.3997 3.72015C55.5597 3.72015 54.9396 3.95015 54.5597 4.42015C54.1797 4.88015 53.9897 5.68015 53.9897 6.79015C53.9897 7.84015 54.1797 8.60015 54.5597 9.08015C54.9396 9.56015 55.5597 9.79015 56.3997 9.79015C57.2397 9.79015 57.8597 9.55015 58.2397 9.08015C58.6196 8.60015 58.8097 7.84015 58.8097 6.79015ZM62.5496 1.08015V3.55015H65.7396V12.4401H69.0596V3.55015H72.2496V1.08015H62.5496Z" fill="white"/>
      <path d="M35.6199 26.1402V14.7202H38.9499V23.5902H44.0899V26.1402H35.6099H35.6199ZM44.6299 26.1402L49.0099 14.7202H52.5399L56.9199 26.1402H53.4399L52.4799 23.7102H49.0399L48.0999 26.1402H44.6199H44.6299ZM49.4899 21.3202H52.0399L50.7599 17.9702L49.4799 21.3202H49.4899ZM58.1599 26.1402V14.7202H61.4899V26.1402H58.1599ZM63.0899 26.1402V14.7202H69.0299C69.9599 14.7202 70.7299 14.8902 71.3299 15.2302C71.9299 15.5702 72.3699 16.0502 72.6699 16.6602C72.9699 17.2702 73.1099 17.9802 73.1099 18.7802C73.1099 19.5802 72.9199 20.2302 72.5299 20.8102C72.1499 21.4002 71.6299 21.8402 70.9999 22.1502C71.1299 22.2602 71.2399 22.3802 71.3399 22.5302C71.4299 22.6802 71.5399 22.8802 71.6599 23.1402L72.9699 26.1402H69.4899L68.2799 23.3902C68.1899 23.1802 68.0699 23.0302 67.9299 22.9402C67.7899 22.8502 67.5999 22.8102 67.3499 22.8102H66.4099V26.1402H63.0799H63.0899ZM66.4299 20.2502H68.1899C68.6699 20.2502 69.0499 20.1202 69.3199 19.8702C69.5899 19.6202 69.7199 19.2502 69.7199 18.7802C69.7199 17.7802 69.2499 17.2702 68.2999 17.2702H66.4399V20.2502H66.4299Z" fill="url(#paint2_linear_4410_205785)"/>
    </g>
  </g>
  <defs>
    <linearGradient id="paint0_linear_4410_205785" x1="156.915" y1="-2.99848" x2="148.412" y2="-21.6091" gradientUnits="userSpaceOnUse">
      <stop stop-color="#DB7004"/>
      <stop offset="0.32" stop-color="#E88F14"/>
      <stop offset="0.77" stop-color="#F8B629"/>
      <stop offset="1" stop-color="#FFC531"/>
    </linearGradient>
    <linearGradient id="paint1_linear_4410_205785" x1="20.0698" y1="28" x2="20.0698" y2="1.49003" gradientUnits="userSpaceOnUse">
      <stop stop-color="#DB7004"/>
      <stop offset="0.32" stop-color="#E88F14"/>
      <stop offset="0.77" stop-color="#F8B629"/>
      <stop offset="1" stop-color="#FFC531"/>
    </linearGradient>
    <linearGradient id="paint2_linear_4410_205785" x1="54.3699" y1="14.7202" x2="54.3699" y2="26.1402" gradientUnits="userSpaceOnUse">
      <stop stop-color="#FFC531"/>
      <stop offset="1" stop-color="#DB7004"/>
    </linearGradient>
    <clipPath id="clip0_4410_205785">
      <rect width="74" height="28" fill="white"/>
    </clipPath>
    <clipPath id="clip1_4410_205785">
      <rect width="74" height="28" fill="white"/>
    </clipPath>
  </defs>
</svg>
