<svg id="eoKN9x2DBF41" xmlns="http://www.w3.org/2000/svg" xmlns:xlink="http://www.w3.org/1999/xlink" viewBox="0 0 110 32" shape-rendering="geometricPrecision" text-rendering="geometricPrecision">
<style><![CDATA[
#eoKN9x2DBF47_ts {animation: eoKN9x2DBF47_ts__ts 15000ms linear infinite normal forwards}@keyframes eoKN9x2DBF47_ts__ts { 0% {transform: translate(9.039664px,17.58195px) scale(1,1)} 2.666667% {transform: translate(9.039664px,17.58195px) scale(1,1);animation-timing-function: cubic-bezier(0.42,0,0.58,1)} 4% {transform: translate(9.039664px,17.58195px) scale(-0.002687,1);animation-timing-function: cubic-bezier(0.42,0,0.58,1)} 5.333333% {transform: translate(9.039664px,17.58195px) scale(1,1)} 100% {transform: translate(9.039664px,17.58195px) scale(1,1)}} #eoKN9x2DBF48_ts {animation: eoKN9x2DBF48_ts__ts 15000ms linear infinite normal forwards}@keyframes eoKN9x2DBF48_ts__ts { 0% {transform: translate(6.004536px,11.216695px) scale(1,1)} 1.333333% {transform: translate(6.004536px,11.216695px) scale(1,1);animation-timing-function: cubic-bezier(0.42,0,0.58,1)} 2.666667% {transform: translate(6.004536px,11.216695px) scale(-0.002687,1);animation-timing-function: cubic-bezier(0.42,0,0.58,1)} 4% {transform: translate(6.004536px,11.216695px) scale(1,1)} 100% {transform: translate(6.004536px,11.216695px) scale(1,1)}} #eoKN9x2DBF49_ts {animation: eoKN9x2DBF49_ts__ts 15000ms linear infinite normal forwards}@keyframes eoKN9x2DBF49_ts__ts { 0% {transform: translate(12.830671px,4.939356px) scale(1,1);animation-timing-function: cubic-bezier(0.42,0,0.58,1)} 1.333333% {transform: translate(12.830671px,4.939356px) scale(-0.002687,1);animation-timing-function: cubic-bezier(0.42,0,0.58,1)} 2.666667% {transform: translate(12.830671px,4.939356px) scale(1,1)} 100% {transform: translate(12.830671px,4.939356px) scale(1,1)}} #eoKN9x2DBF413_ts {animation: eoKN9x2DBF413_ts__ts 15000ms linear infinite normal forwards}@keyframes eoKN9x2DBF413_ts__ts { 0% {transform: translate(13.521013px,22.894099px) scale(1,1)} 2.666667% {transform: translate(13.521013px,22.894099px) scale(1,1);animation-timing-function: cubic-bezier(0.42,0,0.58,1)} 4% {transform: translate(13.521013px,22.894099px) scale(-0.002687,1);animation-timing-function: cubic-bezier(0.42,0,0.58,1)} 5.333333% {transform: translate(13.521013px,22.894099px) scale(1,1)} 100% {transform: translate(13.521013px,22.894099px) scale(1,1)}} #eoKN9x2DBF414_ts {animation: eoKN9x2DBF414_ts__ts 15000ms linear infinite normal forwards}@keyframes eoKN9x2DBF414_ts__ts { 0% {transform: translate(10.623464px,16.81745px) scale(1,1)} 1.333333% {transform: translate(10.623464px,16.81745px) scale(1,1);animation-timing-function: cubic-bezier(0.42,0,0.58,1)} 2.666667% {transform: translate(10.623464px,16.81745px) scale(-0.002687,1);animation-timing-function: cubic-bezier(0.42,0,0.58,1)} 4% {transform: translate(10.623464px,16.81745px) scale(1,1)} 100% {transform: translate(10.623464px,16.81745px) scale(1,1)}} #eoKN9x2DBF415_ts {animation: eoKN9x2DBF415_ts__ts 15000ms linear infinite normal forwards}@keyframes eoKN9x2DBF415_ts__ts { 0% {transform: translate(17.147522px,10.826527px) scale(1,1);animation-timing-function: cubic-bezier(0.42,0,0.58,1)} 1.333333% {transform: translate(17.147522px,10.826527px) scale(-0.002687,1);animation-timing-function: cubic-bezier(0.42,0,0.58,1)} 2.666667% {transform: translate(17.147522px,10.826527px) scale(1,1)} 100% {transform: translate(17.147522px,10.826527px) scale(1,1)}}
]]></style>
<defs><linearGradient id="eoKN9x2DBF45-fill" x1="75.8943" y1="1.20988" x2="75.8943" y2="21.2366" spreadMethod="pad" gradientUnits="userSpaceOnUse" gradientTransform="translate(0 0)"><stop id="eoKN9x2DBF45-fill-0" offset="0%" stop-color="#fff"/><stop id="eoKN9x2DBF45-fill-1" offset="100%" stop-color="#c3c6ce"/></linearGradient><linearGradient id="eoKN9x2DBF47-fill" x1="9.15166" y1="12.4025" x2="9.15166" y2="22.9034" spreadMethod="pad" gradientUnits="userSpaceOnUse" gradientTransform="translate(0 0)"><stop id="eoKN9x2DBF47-fill-0" offset="0%" stop-color="#fd7575"/><stop id="eoKN9x2DBF47-fill-1" offset="100%" stop-color="#c2554e"/></linearGradient><linearGradient id="eoKN9x2DBF48-fill" x1="6.1165" y1="6.03726" x2="6.1165" y2="16.5381" spreadMethod="pad" gradientUnits="userSpaceOnUse" gradientTransform="translate(0 0)"><stop id="eoKN9x2DBF48-fill-0" offset="0%" stop-color="#fff"/><stop id="eoKN9x2DBF48-fill-1" offset="100%" stop-color="#c3c6ce"/></linearGradient><linearGradient id="eoKN9x2DBF49-fill" x1="12.9427" y1="-0.240087" x2="12.9427" y2="10.2608" spreadMethod="pad" gradientUnits="userSpaceOnUse" gradientTransform="translate(0 0)"><stop id="eoKN9x2DBF49-fill-0" offset="0%" stop-color="#91e7a5"/><stop id="eoKN9x2DBF49-fill-1" offset="100%" stop-color="#48d773"/></linearGradient></defs><g display="none" transform="matrix(1.143779 0 0 1.143777 0-3.273645)" clip-path="url(#eoKN9x2DBF410)"><g><g transform="matrix(1.087421 0 0 1.08742 1.332819 4.128988)"><path d="M113.51,9.70847c2.462-.4437,4.755-.56066,7.141.03587l-3.575-7.5793-3.566,7.54343Zm-.681,10.30183l1.946-4.5497c1.745-.7707,2.829-.7891,4.826,0l2.385,4.5497h3.853l-4.35-8.5276c-3.034-.7705-5.528-.8794-8.637,0l-4.129,8.5276h4.106ZM98.2031,2.74316c3.1529.0015,6.3059.001,9.4589.0005c1.576-.00025,3.153-.0005,4.729-.0005l-1.962,3.88485c-.982.0019-1.521.00406-2.09.00634-.508.00203-1.039.00415-1.928.00628v13.36997h-3.957v-13.36006h-3.2509c-.5523,0-1-.44771-1-1v-2.90738ZM51.3662,2.7433c-.5523,0-1,.44759-1,.99987-.0005,5.2814-.0045,11.01283-.0107,16.23323h3.9534c0,0-.0053-11.61337,0-17.2331h-2.9427Zm40.2949.99987c0-.55228.4477-.99987,1-.99987h2.9427c-.0053,5.61973,0,17.2331,0,17.2331h-3.9534c.0061-5.2204.0102-10.95183.0107-16.23323ZM61.4162,20.0061h-4.0696L57.3105,2.74316h2.5211c.3078,0,.5984.14173.788.38425l6.8507,8.76629c.0213-.0569.0406-.1015.0566-.1381.0271-.0625.0443-.1021.0443-.1413l-.02-7.8686c-.0014-.55327.4468-1.00254,1-1.00254h2.9283L71.4687,20.0061h-2.7153c-.3121,0-.6064-.1458-.7955-.3941l-6.3921-8.3925c-.1508.0426-.1509.1907-.1496.3443.0013.7759.005,1.5738.0087,2.3812.0093,2.0269.0189,4.1136-.0087,6.0611Zm13.0984,0h4.0696c.0276-1.9475.018-4.0342.0086-6.0611-.0037-.8074-.0074-1.6053-.0086-2.3812-.0013-.1536-.0012-.3017.1496-.3443l6.3921,8.3925c.1891.2483.4833.3941.7955.3941h2.7153l.0108-17.26294h-2.9283c-.5533,0-1.0014.44927-1,1.00254l.02,7.8686c0,.0392-.0172.0788-.0444.1413-.0159.0366-.0352.0812-.0566.1381L77.7875,3.12741c-.1895-.24252-.4801-.38425-.7879-.38425h-2.5211l.0361,17.26294ZM38.719,19.3008c.1346.411.518.6888.9504.6888h2.6098L47.8928,2.76127L44.743,2.76113c-.4275-.00001-.8076.27186-.946.67645L40.8415,12.0811c-.0132.0512-.0532.095-.1106.1579-.0326.0358-.0708.0777-.1129.1306L37.7834,4.07339c-.2681-.78475-1.0056-1.31212-1.8349-1.31212-.8299,0-1.5678.52809-1.8355,1.31359L31.3847,12.0811c-.0317.069-.0636.1378-.0957.2064L28.1698,3.42908c-.1409-.40018-.519-.66781-.9432-.6692-.1551-.00051-.3096-.00112-.4637-.00172-.7669-.00299-1.5235-.00595-2.2804.00304-.0423.00059-.0995-.00367-.1604-.00819-.1247-.00927-.2646-.01968-.3221.00819c1.0521,3.25844,5.8071,17.2284,5.8071,17.2284h2.4621c.4295,0,.81-.2713.9469-.6784.5528-1.6439,1.9767-5.8774,2.768-8.2216.9426,2.7515,1.8603,5.5403,2.7349,8.2112Z" clip-rule="evenodd" fill="url(#eoKN9x2DBF45-fill)" fill-rule="evenodd"/><g><g id="eoKN9x2DBF47_ts" transform="translate(9.039664,17.58195) scale(1,1)"><path d="M14.8589,13.839c.1813-.5052-.5076-.9357-1.4865-.9357h-5.43859c-1.0152,0-1.95789.4305-2.13917.9357L3.22038,21.3248c-.18129.524.5076.9358,1.5228.9358h5.43862c.9789,0,1.9216-.4118,2.1029-.9358l2.5742-7.4858Z" transform="translate(-9.039664,-17.58195)" fill="url(#eoKN9x2DBF47-fill)"/></g><g id="eoKN9x2DBF48_ts" transform="translate(6.004536,11.216695) scale(1,1)"><path d="M11.8238,7.47381c.1813-.50529-.5076-.93572-1.4866-.93572h-5.43854c-1.0152,0-1.95789.43043-2.13918.93572L0.185223,14.9596c-.181286.524.507603.9357,1.522807.9357h5.43857c.97894,0,1.92163-.4117,2.10291-.9357L11.8238,7.47381Z" transform="translate(-6.004536,-11.216695)" fill="url(#eoKN9x2DBF48-fill)"/></g><g id="eoKN9x2DBF49_ts" transform="translate(12.830671,4.939356) scale(1,1)"><path d="M18.6499,1.19646c.1813-.505286-.5076-.935718-1.4865-.935718h-5.4386c-1.0152,0-1.95786.430432-2.13915.935718L7.01139,8.68225c-.18128.524.50761.93572,1.52281.93572h5.4386c.9789,0,1.9216-.41172,2.1029-.93572l2.5742-7.48579Z" transform="translate(-12.830671,-4.939356)" fill="url(#eoKN9x2DBF49-fill)"/></g></g></g></g><clipPath id="eoKN9x2DBF410"><rect width="412.703417" height="789.277915" rx="0" ry="0" transform="translate(-.351707 0.000001)" fill="#d2dbed" stroke-width="0"/></clipPath></g><g transform="translate(.741821-.860175)"><g id="eoKN9x2DBF413_ts" transform="translate(13.521013,22.894099) scale(1,1)"><path d="M18.6937,19.1316c.1142-.4787-.2965-.6702-1.2309-.6702h-6.3483c-.969,0-1.0064.4078-1.12068.8866L8.40738,26.4403c-.11209.4964-.24592.8865.72314.8865h6.66338c.9344,0,1.1155-.0297,1.2276-.5262l1.6722-7.669Z" transform="translate(-13.521013,-22.894099)" fill="#ff5050"/></g><g id="eoKN9x2DBF414_ts" transform="translate(10.623464,16.81745) scale(1,1)"><path d="M15.7462,13.2713c.1143-.4787.009-.8865-.9255-.8865h-6.49149c-.96906,0-1.12103.4078-1.23529.8865L5.50749,20.3636c-.11209.4965-.07478.8865.89428.8865h6.66353c.9344,0,.9824-.39,1.0945-.8865l1.5864-7.0923Z" transform="translate(-10.623464,-16.81745)" fill="#0a5ac9"/></g><g id="eoKN9x2DBF415_ts" transform="translate(17.147522,10.826527) scale(1,1)"><path d="M22.2631,7.28009c.1143-.47873.2938-.88654-.5126-.88654h-6.5c-.9691,0-1.3248.01755-1.4391.49628l-1.787,7.48257c-.1121.4964-.3017.8865.6673.8865h6.0865c.9345,0,1.7016.0366,1.8137-.4598l1.6712-7.51901Z" transform="translate(-17.147522,-10.826527)" fill="#3fcf5f"/></g><path d="M47.1652,8.01715h-3.192L39.2498,22.0898l.4394-14.07265h-3.388L31.2418,22.0898l.9154-14.07265h-3.332L28.562,25.3605h4.088l4.3375-12.231-.3895,12.231h4.088L47.1652,8.01715Zm1.7865,0h3.22L48.8005,25.3605h-3.22L48.9517,8.01715Zm15.8384,0h-2.94L59.6489,19.3412L58.1261,8.01715h-3.108L51.6469,25.3605h2.968l2.2332-11.4889l1.5468,11.4889h3.024L64.7901,8.01715Zm9.5561,0h2.94L73.915,25.3605h-3.024L69.3442,13.8716L67.111,25.3605h-2.968L67.5142,8.01715h3.108L72.145,19.3412L74.3462,8.01715Zm9.0521,0h-3.22L76.807,25.3605h3.22L83.3983,8.01715Zm11.0504,0l-.4702,2.41875h-3.108l-2.901,14.9246h-3.22l2.901-14.9246h-3.08l.4702-2.41875h9.408ZM99.8051,25.3605l.0279-3.6006h-3.864l-1.3159,3.6006h-3.22L98.3604,8.01715h4.3396l.353,17.34335h-3.2479Zm-2.9513-5.9918h2.996l.0735-8.3007-3.0695,8.3007Z" clip-rule="evenodd" fill="#0a5ac9" fill-rule="evenodd"/></g></svg>
